<svg width="84" height="84" viewBox="0 0 84 84" fill="none" xmlns="http://www.w3.org/2000/svg">
<path d="M42 0C33.6932 0 25.5729 2.46326 18.6661 7.07827C11.7592 11.6933 6.37596 18.2528 3.19708 25.9273C0.0181979 33.6018 -0.813542 42.0466 0.807037 50.1938C2.42762 58.341 6.42773 65.8247 12.3015 71.6985C18.1753 77.5723 25.659 81.5724 33.8062 83.193C41.9534 84.8135 50.3982 83.9818 58.0727 80.8029C65.7472 77.624 72.3067 72.2408 76.9217 65.3339C81.5367 58.4271 84 50.3068 84 42C83.9873 30.8648 79.5582 20.1893 71.6845 12.3155C63.8107 4.44177 53.1352 0.0127042 42 0ZM6.00002 42C6.00821 37.9093 6.71853 33.8504 8.10002 30H24L39 42L30.6 53.079C30.1669 53.6567 29.9566 54.3713 30.0079 55.0915C30.0591 55.8118 30.3684 56.4894 30.879 57L39 66V77.85C30.0098 77.0913 21.6314 72.9872 15.521 66.3492C9.41068 59.7111 6.01313 51.0222 6.00002 42ZM58.305 74.055L65.943 50.955C66.0519 50.4088 66.0065 49.8431 65.8121 49.3212C65.6176 48.7993 65.2817 48.3418 64.842 48L39 27L45 21H60.84C61.4694 20.9995 62.0827 20.8011 62.5931 20.4328C63.1035 20.0646 63.4851 19.5451 63.684 18.948L65.169 14.49C69.7203 18.3093 73.2533 23.1979 75.4513 28.7179C77.6494 34.2379 78.4439 40.2169 77.7637 46.1193C77.0835 52.0218 74.9499 57.6634 71.5539 62.5387C68.158 67.4141 63.6058 71.371 58.305 74.055Z" fill="white"/>
</svg>
