<svg width="85" height="69" viewBox="0 0 85 69" fill="none" xmlns="http://www.w3.org/2000/svg">
<path d="M79.4445 0.194336H5.55561C4.15586 0.194336 2.81343 0.750386 1.82366 1.74016C0.833882 2.72994 0.277832 4.07236 0.277832 5.47211V63.5277C0.277832 64.9274 0.833882 66.2699 1.82366 67.2596C2.81343 68.2494 4.15586 68.8055 5.55561 68.8055H79.4445C80.8443 68.8055 82.1867 68.2494 83.1765 67.2596C84.1662 66.2699 84.7223 64.9274 84.7223 63.5277V5.47211C84.7223 4.07236 84.1662 2.72994 83.1765 1.74016C82.1867 0.750386 80.8443 0.194336 79.4445 0.194336ZM12.9445 28.7207V21.7541L39.3334 33.8666V39.3554L12.9445 51.468V44.4749L30.1237 36.5582L12.9445 28.7207ZM56.7501 54.0277H39.8612V47.6943H56.7501V54.0277ZM5.55561 11.2777V5.47211H79.4445V11.2777H5.55561Z" fill="white"/>
</svg>
