<svg width="44" height="52" viewBox="0 0 44 52" fill="none" xmlns="http://www.w3.org/2000/svg">
<path d="M22.2287 30.2823H18.7723C18.5711 30.2833 18.3789 30.2061 18.2435 30.0701C18.1082 29.9342 18.0424 29.7521 18.0625 29.5692L18.3677 26.3925C18.3974 26.0549 18.7066 25.795 19.0774 25.7961H22.5339C22.7351 25.7952 22.9272 25.8723 23.0626 26.0083C23.1979 26.1443 23.2637 26.3264 23.2436 26.5092L22.9384 29.6859C22.9088 30.0236 22.5995 30.2834 22.2287 30.2823ZM22.7827 24.0627H19.262C18.8731 24.0627 18.5578 23.7533 18.5578 23.3717L19.5155 12.6395C19.5584 12.2906 19.8615 12.0289 20.2196 12.0314H23.7403C24.1292 12.0314 24.4444 12.3408 24.4444 12.7225L23.4586 23.4615C23.4139 23.7975 23.1277 24.052 22.7827 24.0627ZM43.484 11.5476C43.8587 11.991 44.0417 12.5683 43.992 13.1498L42.6159 29.0937C42.5718 29.6152 42.3434 30.1031 41.9728 30.4679L30.7197 41.5401C30.3179 41.9339 29.7804 42.1535 29.2214 42.1523H17.2416L6.69572 52L7.51238 42.1458H2.14944C1.54711 42.1463 0.972255 41.8905 0.565078 41.441C0.1579 40.9914 -0.0441801 40.3893 0.00811853 39.7816L3.28119 1.95391C3.3935 0.842213 4.31918 -0.0024537 5.42251 5.35543e-06H32.7324C33.3606 -0.00017843 33.9575 0.278283 34.3657 0.762029L43.484 11.5476ZM35.1438 26.0521L36.0183 16.2109C36.0522 15.6275 35.8529 15.0547 35.4653 14.6217L30.321 8.60371C29.9133 8.12826 29.3222 7.85505 28.7005 7.85471H12.4959C11.3926 7.85225 10.4669 8.69692 10.3546 9.80862L8.4255 31.9529C8.38109 32.5588 8.58587 33.1563 8.99137 33.604C9.39687 34.0518 9.96702 34.3098 10.5668 34.3171H26.5013C27.0541 34.3185 27.5862 34.1039 27.9867 33.7179L34.5007 27.4329C34.8727 27.0664 35.1011 26.5759 35.1438 26.0521Z" fill="white"/>
</svg>
