<svg width="94" height="72" viewBox="0 0 94 72" fill="none" xmlns="http://www.w3.org/2000/svg">
<path d="M41.5625 71.25C41.5625 71.25 35.625 71.25 35.625 65.375C35.625 59.5 41.5625 41.875 65.3125 41.875C89.0625 41.875 95 59.5 95 65.375C95 71.25 89.0625 71.25 89.0625 71.25H41.5625ZM65.3125 36C70.0367 36 74.5673 34.1431 77.9078 30.8378C81.2483 27.5324 83.125 23.0494 83.125 18.375C83.125 13.7006 81.2483 9.21757 77.9078 5.91224C74.5673 2.60691 70.0367 0.75 65.3125 0.75C60.5883 0.75 56.0576 2.60691 52.7172 5.91224C49.3767 9.21757 47.5 13.7006 47.5 18.375C47.5 23.0494 49.3767 27.5324 52.7172 30.8378C56.0576 34.1431 60.5883 36 65.3125 36Z" fill="white"/>
<path fill-rule="evenodd" clip-rule="evenodd" d="M30.97 71.2501C30.0898 69.416 29.6508 67.4051 29.6875 65.3751C29.6875 57.4144 33.725 49.2188 41.1825 43.5201C37.4602 42.3852 33.5822 41.8303 29.6875 41.8751C5.9375 41.8751 0 59.5001 0 65.3751C0 71.2501 5.9375 71.2501 5.9375 71.2501H30.97Z" fill="white"/>
<path d="M26.7188 36C30.6556 36 34.4311 34.4526 37.2149 31.6981C39.9986 28.9437 41.5625 25.2079 41.5625 21.3125C41.5625 17.4171 39.9986 13.6813 37.2149 10.9269C34.4311 8.17243 30.6556 6.625 26.7188 6.625C22.7819 6.625 19.0064 8.17243 16.2226 10.9269C13.4389 13.6813 11.875 17.4171 11.875 21.3125C11.875 25.2079 13.4389 28.9437 16.2226 31.6981C19.0064 34.4526 22.7819 36 26.7188 36Z" fill="white"/>
</svg>
